<svg xmlns="http://www.w3.org/2000/svg" width="940" height="330" viewBox="0 0 940 330" role="img" aria-label="Precision at each budget, by arm"><rect width="100%" height="100%" fill="#FFFFFF"/><line x1="62" y1="276" x2="790" y2="276" stroke="#E4E8EC"></line><text x="53" y="280" text-anchor="end" font-size="10" fill="#74828F">0.40</text><line x1="62" y1="227.60000000000002" x2="790" y2="227.60000000000002" stroke="#E4E8EC"></line><text x="53" y="231.60000000000002" text-anchor="end" font-size="10" fill="#74828F">0.50</text><line x1="62" y1="179.20000000000002" x2="790" y2="179.20000000000002" stroke="#E4E8EC"></line><text x="53" y="183.20000000000002" text-anchor="end" font-size="10" fill="#74828F">0.60</text><line x1="62" y1="130.8" x2="790" y2="130.8" stroke="#E4E8EC"></line><text x="53" y="134.8" text-anchor="end" font-size="10" fill="#74828F">0.70</text><line x1="62" y1="82.39999999999999" x2="790" y2="82.39999999999999" stroke="#E4E8EC"></line><text x="53" y="86.39999999999999" text-anchor="end" font-size="10" fill="#74828F">0.80</text><line x1="62" y1="34" x2="790" y2="34" stroke="#E4E8EC"></line><text x="53" y="38" text-anchor="end" font-size="10" fill="#74828F">0.90</text><text x="62" y="294" text-anchor="middle" font-size="10.5" fill="#41505F">1</text><text x="153" y="294" text-anchor="middle" font-size="10.5" fill="#41505F">2</text><text x="244" y="294" text-anchor="middle" font-size="10.5" fill="#41505F">3</text><text x="335" y="294" text-anchor="middle" font-size="10.5" fill="#41505F">4</text><text x="426" y="294" text-anchor="middle" font-size="10.5" fill="#41505F">5</text><text x="517" y="294" text-anchor="middle" font-size="10.5" fill="#41505F">6</text><text x="608" y="294" text-anchor="middle" font-size="10.5" fill="#41505F">7</text><text x="699" y="294" text-anchor="middle" font-size="10.5" fill="#41505F">8</text><text x="790" y="294" text-anchor="middle" font-size="10.5" fill="#41505F">9</text><text x="426" y="312" text-anchor="middle" font-size="10.5" fill="#74828F">experiments actually run (priority order)</text><text x="10" y="20" font-size="10" fill="#74828F" letter-spacing="1.1">PRECISION@k</text><polyline points="62,85.25559999999999 153,80.99640000000004 244,105.19640000000001 335,137.18880000000001 426,166.08360000000002 517,193.9136 608,216.22600000000003 699,239.3612 790,262.0608" fill="none" stroke="#B3701F" stroke-width="2"></polyline><circle cx="62" cy="85.25559999999999" r="3.4" fill="#B3701F"></circle><circle cx="153" cy="80.99640000000004" r="3.4" fill="#B3701F"></circle><circle cx="244" cy="105.19640000000001" r="3.4" fill="#B3701F"></circle><circle cx="335" cy="137.18880000000001" r="3.4" fill="#B3701F"></circle><circle cx="426" cy="166.08360000000002" r="3.4" fill="#B3701F"></circle><circle cx="517" cy="193.9136" r="3.4" fill="#B3701F"></circle><circle cx="608" cy="216.22600000000003" r="3.4" fill="#B3701F"></circle><circle cx="699" cy="239.3612" r="3.4" fill="#B3701F"></circle><circle cx="790" cy="262.0608" r="3.4" fill="#B3701F"></circle><polyline points="62,48.22959999999999 153,78.14080000000003 244,100.4532 335,130.8 426,162.11480000000003 517,191.542 608,217.0488 699,241.1036 790,262.69000000000005" fill="none" stroke="#8C5A9E" stroke-width="2"></polyline><circle cx="62" cy="48.22959999999999" r="3.4" fill="#8C5A9E"></circle><circle cx="153" cy="78.14080000000003" r="3.4" fill="#8C5A9E"></circle><circle cx="244" cy="100.4532" r="3.4" fill="#8C5A9E"></circle><circle cx="335" cy="130.8" r="3.4" fill="#8C5A9E"></circle><circle cx="426" cy="162.11480000000003" r="3.4" fill="#8C5A9E"></circle><circle cx="517" cy="191.542" r="3.4" fill="#8C5A9E"></circle><circle cx="608" cy="217.0488" r="3.4" fill="#8C5A9E"></circle><circle cx="699" cy="241.1036" r="3.4" fill="#8C5A9E"></circle><circle cx="790" cy="262.69000000000005" r="3.4" fill="#8C5A9E"></circle><polyline points="62,59.60360000000003 153,68.1704 244,89.03080000000001 335,120.10360000000003 426,151.85400000000004 517,178.716 608,206.44920000000002 699,232.924 790,256.398" fill="none" stroke="#00899B" stroke-width="2"></polyline><circle cx="62" cy="59.60360000000003" r="3.4" fill="#00899B"></circle><circle cx="153" cy="68.1704" r="3.4" fill="#00899B"></circle><circle cx="244" cy="89.03080000000001" r="3.4" fill="#00899B"></circle><circle cx="335" cy="120.10360000000003" r="3.4" fill="#00899B"></circle><circle cx="426" cy="151.85400000000004" r="3.4" fill="#00899B"></circle><circle cx="517" cy="178.716" r="3.4" fill="#00899B"></circle><circle cx="608" cy="206.44920000000002" r="3.4" fill="#00899B"></circle><circle cx="699" cy="232.924" r="3.4" fill="#00899B"></circle><circle cx="790" cy="256.398" r="3.4" fill="#00899B"></circle><text x="800" y="130" font-size="10" fill="#74828F" letter-spacing="1.1">Δ CARD − NO CARD</text><text x="800" y="148" font-size="10.5" fill="#74828F">k=1</text><text x="842" y="148" font-size="10.5" fill="#1E7A4B">+0.053</text><text x="800" y="166" font-size="10.5" fill="#74828F">k=3</text><text x="842" y="166" font-size="10.5" fill="#1E7A4B">+0.033</text><text x="800" y="184" font-size="10.5" fill="#74828F">k=6</text><text x="842" y="184" font-size="10.5" fill="#1E7A4B">+0.031</text><text x="800" y="202" font-size="10.5" fill="#74828F">k=9</text><text x="842" y="202" font-size="10.5" fill="#1E7A4B">+0.012</text><text x="800" y="260.398" font-size="10.5" fill="#00899B">norm card 0.441</text><text x="800" y="273.398" font-size="10.5" fill="#B3701F">no card 0.429</text><text x="800" y="286.398" font-size="10.5" fill="#8C5A9E">retrieval 0.427</text></svg>